<svg xmlns="http://www.w3.org/2000/svg" viewBox="0 0 1024 1024">
  <defs>
    <linearGradient id="bg" x1="0" y1="1" x2="1" y2="0">
      <stop offset="0%" stop-color="#171416"/>
      <stop offset="100%" stop-color="#0C0C0E"/>
    </linearGradient>
    <linearGradient id="mark" x1="230" y1="760" x2="780" y2="250" gradientUnits="userSpaceOnUse">
      <stop offset="0%" stop-color="#C87878"/>
      <stop offset="100%" stop-color="#E8A890"/>
    </linearGradient>
    <linearGradient id="frame" x1="220" y1="820" x2="820" y2="200" gradientUnits="userSpaceOnUse">
      <stop offset="0%" stop-color="#C87878" stop-opacity="0.65"/>
      <stop offset="100%" stop-color="#E8A890" stop-opacity="0.35"/>
    </linearGradient>
  </defs>
  <rect width="1024" height="1024" rx="256" fill="url(#bg)"/>
  <path d="M512 118C663 118 785 166 785 166V450c0 186-132 321-273 398C371 771 239 636 239 450V166s122-48 273-48Z"
    fill="none" stroke="url(#frame)" stroke-width="20"/>
  <circle cx="512" cy="512" r="292" fill="#FFFFFF" fill-opacity="0.03"/>
  <g transform="translate(248,704) rotate(-28)">
    <path d="M 0 0 Q 86 -146 172 0 T 344 0 T 516 0"
      fill="none" stroke="url(#mark)" stroke-width="52" stroke-linecap="round" stroke-linejoin="round"/>
    <circle cx="0" cy="0" r="38" fill="url(#mark)"/>
    <circle cx="516" cy="0" r="38" fill="url(#mark)"/>
  </g>
</svg>
